<svg xmlns="http://www.w3.org/2000/svg" xmlns:xlink="http://www.w3.org/1999/xlink" width="500" zoomAndPan="magnify" viewBox="0 0 375 374.999991" height="500" preserveAspectRatio="xMidYMid meet" version="1.0"><defs><g/><clipPath id="2f2cf1f6c9"><path d="M 46.535156 48.546875 L 328.535156 48.546875 L 328.535156 239.796875 L 46.535156 239.796875 Z M 46.535156 48.546875 " clip-rule="nonzero"/></clipPath></defs><path fill="#00c2cb" d="M 180.175781 202.503906 C 180.078125 216.617188 174.039062 225.457031 165.40625 231.285156 C 149.285156 223.125 135.957031 209.3125 128.6875 191.21875 C 123.21875 177.578125 121.929688 163.304688 124.199219 149.8125 C 130.164062 150.742188 136.316406 152.207031 142.453125 154.316406 C 169.882812 163.738281 180.347656 188.601562 180.175781 202.503906 Z M 180.175781 202.503906 " fill-opacity="1" fill-rule="nonzero"/><g clip-path="url(#2f2cf1f6c9)"><path fill="#00c2cb" d="M 328.535156 81.90625 L 202.210938 48.710938 L 46.535156 111.222656 L 129.046875 132.910156 C 129.011719 133.011719 128.960938 133.085938 128.9375 133.183594 C 130.945312 133.035156 133.054688 132.898438 135.222656 132.789062 C 158.710938 132.789062 179.371094 134.289062 188.570312 120.050781 C 197.773438 105.816406 199.050781 82.390625 186.289062 71.914062 C 186.289062 71.914062 238.878906 99.316406 234.972656 166.628906 C 234.117188 182.785156 226.492188 224.007812 178.800781 236.554688 C 194.785156 241.207031 212.378906 240.734375 229.007812 234.0625 C 268.542969 218.191406 287.726562 173.261719 271.851562 133.730469 C 268.304688 124.914062 263.257812 117.175781 257.234375 110.550781 L 294.792969 95.460938 C 298.03125 114.621094 302.46875 149.824219 295.972656 171.664062 L 320.164062 167.609375 C 320.164062 167.609375 317.636719 122.644531 300.375 93.230469 Z M 163.992188 122.320312 C 152.164062 122.320312 142.578125 112.722656 142.578125 100.90625 C 142.578125 89.074219 152.152344 79.488281 163.992188 79.488281 C 175.8125 79.488281 185.410156 89.0625 185.410156 100.90625 C 185.394531 112.722656 175.8125 122.320312 163.992188 122.320312 Z M 163.992188 122.320312 " fill-opacity="1" fill-rule="nonzero"/></g><g fill="#00c2cb" fill-opacity="1"><g transform="translate(135.906325, 302.884951)"><g><path d="M 35.511719 -3.40625 L 34.78125 -5.167969 L 33.140625 -9.242188 C 31.804688 -6.933594 28.761719 -5.167969 25.296875 -5.167969 L 11.980469 -5.167969 L 34.902344 -41.410156 C 36.179688 -43.476562 34.660156 -46.152344 32.289062 -46.152344 L 3.285156 -46.152344 C 1.519531 -46.152344 0.363281 -44.390625 0.972656 -42.75 L 1.703125 -40.925781 L 3.34375 -36.910156 C 4.683594 -39.222656 7.722656 -40.925781 11.1875 -40.925781 L 23.835938 -40.925781 L 7.175781 -14.898438 C 4.863281 -10.882812 3.101562 -8.148438 2.007812 -5.777344 C 0.667969 -3.101562 2.613281 0 5.59375 0 L 33.203125 0 C 34.964844 0 36.121094 -1.761719 35.511719 -3.40625 Z M 35.511719 -3.40625 "/></g></g></g><g fill="#00c2cb" fill-opacity="1"><g transform="translate(179.806673, 302.884951)"><g><path d="M 13.195312 -11.554688 L 13.195312 -41.53125 C 13.195312 -44.085938 11.128906 -46.152344 8.574219 -46.152344 L 1.703125 -46.152344 C 3.953125 -42.6875 3.953125 -36.910156 3.953125 -34.601562 L 3.953125 -4.621094 C 3.953125 -2.066406 6.019531 0 8.574219 0 L 15.507812 0 C 13.195312 -3.464844 13.195312 -9.242188 13.195312 -11.554688 Z M 13.195312 -11.554688 "/></g></g></g><g fill="#00c2cb" fill-opacity="1"><g transform="translate(204.372753, 302.884951)"><g><path d="M 13.195312 -5.777344 L 13.195312 -41.53125 C 13.195312 -44.085938 11.128906 -46.152344 8.574219 -46.152344 L 1.703125 -46.152344 C 3.953125 -42.6875 3.953125 -36.910156 3.953125 -34.601562 L 3.953125 -3.464844 C 3.953125 -1.519531 5.535156 0 7.417969 0 L 29.734375 0 C 31.558594 -0.121094 33.140625 -1.15625 33.929688 -2.738281 C 34.355469 -3.648438 34.78125 -4.742188 35.148438 -5.777344 Z M 13.195312 -5.777344 "/></g></g></g></svg>